<?xml version="1.0" encoding="utf-8"?>
<!-- Generator: Adobe Illustrator 24.3.0, SVG Export Plug-In . SVG Version: 6.00 Build 0)  -->
<svg version="1.1" id="Layer_1" xmlns="http://www.w3.org/2000/svg" xmlns:xlink="http://www.w3.org/1999/xlink" x="0px" y="0px"
	 viewBox="0 0 167.3 136.1" style="enable-background:new 0 0 167.3 136.1;" xml:space="preserve">
<style type="text/css">
	.st0{fill:#404041;}
	.st1{fill:#00A551;}
	.st2{fill:#FFFFFF;}
	.st3{font-family:'MyriadPro-Bold';}
	.st4{font-size:10.2877px;}
</style>
<g>
	<path class="st0" d="M85.3,116.9h80.5c0.9,0,1.6,0.7,1.6,1.6v16.1c0,0.9-0.7,1.6-1.6,1.6H85.3c-0.9,0-1.6-0.7-1.6-1.6v-16.1
		C83.7,117.6,84.4,116.9,85.3,116.9z"/>
	<g>
		<g>
			<g>
				<g>
					<path class="st0" d="M15.7,112.6c0,0.2,0,0.3,0,0.5c0,0.1,0,0.2-0.1,0.3c0,0.1-0.1,0.1-0.1,0.1c0,0-0.1,0-0.1,0
						c-0.2,0-0.4-0.1-0.8-0.2c-0.4-0.1-0.8-0.3-1.2-0.6c-0.5-0.3-1-0.6-1.5-0.9c-0.5-0.4-1-0.8-1.5-1.3c-0.4,0.2-0.9,0.4-1.5,0.6
						c-0.6,0.2-1.3,0.3-2.1,0.3c-1.2,0-2.2-0.2-3-0.5c-0.8-0.3-1.5-0.8-2.1-1.5c-0.6-0.7-1-1.5-1.2-2.5c-0.3-1-0.4-2.1-0.4-3.4
						c0-1.2,0.1-2.3,0.4-3.3c0.3-1,0.7-1.8,1.3-2.5s1.3-1.2,2.2-1.6c0.9-0.4,1.9-0.6,3.1-0.6c1.1,0,2.1,0.2,2.9,0.5
						c0.8,0.3,1.5,0.8,2.1,1.5c0.6,0.7,1,1.5,1.3,2.4c0.3,1,0.4,2.1,0.4,3.3c0,0.6,0,1.3-0.1,1.8c-0.1,0.6-0.2,1.1-0.4,1.7
						c-0.2,0.5-0.4,1-0.6,1.4c-0.2,0.4-0.5,0.8-0.9,1.2c0.6,0.5,1.1,0.8,1.5,1.1c0.4,0.3,0.8,0.5,1.1,0.6c0.3,0.1,0.5,0.2,0.7,0.3
						c0.2,0.1,0.3,0.1,0.4,0.2c0.1,0.1,0.1,0.2,0.2,0.3S15.7,112.4,15.7,112.6z M11.6,103.5c0-0.9-0.1-1.7-0.2-2.4
						c-0.2-0.7-0.4-1.4-0.8-1.9c-0.4-0.6-0.8-1-1.4-1.3c-0.6-0.3-1.3-0.5-2.2-0.5s-1.6,0.2-2.2,0.5c-0.6,0.3-1.1,0.8-1.5,1.3
						c-0.4,0.6-0.6,1.2-0.8,1.9c-0.2,0.7-0.2,1.5-0.2,2.3c0,0.9,0.1,1.7,0.2,2.5s0.4,1.4,0.8,2c0.4,0.6,0.8,1,1.4,1.3
						c0.6,0.3,1.3,0.5,2.3,0.5c0.9,0,1.6-0.2,2.3-0.5c0.6-0.3,1.1-0.8,1.5-1.3c0.4-0.6,0.6-1.2,0.8-2
						C11.5,105.1,11.6,104.3,11.6,103.5z"/>
					<path class="st0" d="M31.3,103.4c0,1.2-0.1,2.4-0.4,3.4c-0.3,1-0.7,1.9-1.3,2.6c-0.6,0.7-1.3,1.2-2.2,1.6
						c-0.9,0.4-1.9,0.6-3.1,0.6c-1.2,0-2.2-0.2-3-0.5c-0.8-0.3-1.5-0.8-2.1-1.5c-0.6-0.7-1-1.5-1.2-2.5c-0.3-1-0.4-2.1-0.4-3.4
						c0-1.2,0.1-2.3,0.4-3.3c0.3-1,0.7-1.8,1.3-2.5c0.6-0.7,1.3-1.2,2.2-1.6c0.9-0.4,1.9-0.6,3.1-0.6c1.1,0,2.1,0.2,3,0.5
						c0.8,0.3,1.5,0.8,2.1,1.5c0.6,0.7,1,1.5,1.2,2.4C31.2,101,31.3,102.1,31.3,103.4z M29.2,103.5c0-0.9-0.1-1.7-0.2-2.4
						c-0.2-0.7-0.4-1.4-0.8-1.9c-0.4-0.6-0.8-1-1.4-1.3c-0.6-0.3-1.3-0.5-2.2-0.5s-1.6,0.2-2.2,0.5c-0.6,0.3-1.1,0.8-1.5,1.3
						c-0.4,0.6-0.6,1.2-0.8,1.9c-0.2,0.7-0.2,1.5-0.2,2.3c0,0.9,0.1,1.7,0.2,2.5c0.1,0.8,0.4,1.4,0.8,2c0.4,0.6,0.8,1,1.4,1.3
						c0.6,0.3,1.3,0.5,2.3,0.5c0.9,0,1.6-0.2,2.3-0.5c0.6-0.3,1.1-0.8,1.5-1.3c0.4-0.6,0.6-1.2,0.8-2
						C29.1,105.1,29.2,104.3,29.2,103.5z"/>
					<path class="st0" d="M46,110.9c0,0.1,0,0.1,0,0.2c0,0-0.1,0.1-0.2,0.1c-0.1,0-0.2,0.1-0.3,0.1c-0.1,0-0.3,0-0.6,0
						c-0.2,0-0.4,0-0.5,0c-0.1,0-0.2,0-0.3-0.1c-0.1,0-0.1-0.1-0.2-0.1c0-0.1-0.1-0.1-0.1-0.2l-1.4-3.6c-0.2-0.4-0.3-0.8-0.5-1.1
						c-0.2-0.3-0.4-0.6-0.6-0.9c-0.2-0.3-0.5-0.4-0.9-0.6c-0.3-0.1-0.7-0.2-1.2-0.2h-1.4v6.5c0,0.1,0,0.1-0.1,0.2
						c0,0-0.1,0.1-0.2,0.1s-0.2,0.1-0.3,0.1c-0.1,0-0.3,0-0.5,0s-0.4,0-0.5,0c-0.1,0-0.2,0-0.3-0.1c-0.1,0-0.1-0.1-0.2-0.1
						c0,0,0-0.1,0-0.2V96.7c0-0.3,0.1-0.5,0.2-0.6c0.2-0.1,0.3-0.2,0.5-0.2h3.3c0.4,0,0.7,0,1,0c0.3,0,0.5,0,0.7,0.1
						c0.6,0.1,1.1,0.3,1.6,0.5c0.5,0.2,0.8,0.5,1.2,0.8c0.3,0.3,0.5,0.7,0.7,1.2c0.2,0.4,0.2,0.9,0.2,1.5c0,0.5-0.1,1-0.2,1.4
						c-0.1,0.4-0.3,0.8-0.6,1.1c-0.3,0.3-0.6,0.6-0.9,0.8c-0.4,0.2-0.8,0.4-1.2,0.6c0.3,0.1,0.5,0.3,0.7,0.4
						c0.2,0.2,0.4,0.4,0.6,0.6c0.2,0.2,0.3,0.5,0.5,0.8c0.2,0.3,0.3,0.7,0.5,1l1.4,3.4c0.1,0.3,0.2,0.5,0.2,0.6
						C46,110.8,46,110.9,46,110.9z M42.9,100.1c0-0.6-0.1-1.1-0.4-1.5c-0.3-0.4-0.7-0.7-1.4-0.9c-0.2-0.1-0.4-0.1-0.7-0.1
						c-0.3,0-0.6,0-1,0h-1.7v5.2h2c0.5,0,1-0.1,1.4-0.2s0.7-0.3,1-0.5c0.3-0.2,0.4-0.5,0.6-0.8C42.9,100.8,42.9,100.5,42.9,100.1z"
						/>
					<path class="st0" d="M61.7,105.6c0,0.9-0.1,1.8-0.4,2.5s-0.7,1.4-1.2,1.9c-0.5,0.5-1.1,0.9-1.9,1.2c-0.7,0.3-1.6,0.4-2.5,0.4
						c-0.9,0-1.6-0.1-2.3-0.4s-1.3-0.6-1.8-1.1c-0.5-0.5-0.9-1.1-1.2-1.8c-0.3-0.7-0.4-1.6-0.4-2.5v-9.5c0-0.1,0-0.1,0-0.2
						c0,0,0.1-0.1,0.2-0.1c0.1,0,0.2-0.1,0.3-0.1c0.1,0,0.3,0,0.5,0c0.2,0,0.4,0,0.5,0c0.1,0,0.2,0,0.3,0.1c0.1,0,0.1,0.1,0.2,0.1
						c0,0,0,0.1,0,0.2v9.3c0,0.7,0.1,1.3,0.3,1.9c0.2,0.5,0.4,1,0.8,1.3s0.7,0.6,1.2,0.8c0.5,0.2,1,0.3,1.6,0.3
						c0.6,0,1.1-0.1,1.6-0.3c0.5-0.2,0.9-0.4,1.2-0.8c0.3-0.3,0.6-0.8,0.7-1.3c0.2-0.5,0.3-1.1,0.3-1.8v-9.4c0-0.1,0-0.1,0-0.2
						c0,0,0.1-0.1,0.2-0.1c0.1,0,0.2-0.1,0.3-0.1c0.1,0,0.3,0,0.5,0c0.2,0,0.4,0,0.5,0c0.1,0,0.2,0,0.3,0.1c0.1,0,0.1,0.1,0.2,0.1
						c0,0,0.1,0.1,0.1,0.2L61.7,105.6L61.7,105.6z"/>
					<path class="st0" d="M83.7,110.9c0,0.1,0,0.1,0,0.2c0,0-0.1,0.1-0.2,0.1c-0.1,0-0.2,0.1-0.3,0.1c-0.1,0-0.3,0-0.5,0
						c-0.2,0-0.3,0-0.5,0c-0.1,0-0.2,0-0.3-0.1c-0.1,0-0.1-0.1-0.2-0.1c0,0,0-0.1,0-0.2V97.5h0L76.2,111c0,0.1-0.1,0.1-0.1,0.1
						c0,0-0.1,0.1-0.2,0.1c-0.1,0-0.2,0-0.3,0.1c-0.1,0-0.3,0-0.4,0c-0.2,0-0.3,0-0.4,0c-0.1,0-0.2,0-0.3-0.1
						c-0.1,0-0.1-0.1-0.2-0.1c0,0-0.1-0.1-0.1-0.1L69,97.5h0v13.4c0,0.1,0,0.1,0,0.2c0,0-0.1,0.1-0.2,0.1c-0.1,0-0.2,0.1-0.3,0.1
						s-0.3,0-0.5,0c-0.2,0-0.4,0-0.5,0c-0.1,0-0.2,0-0.3-0.1c-0.1,0-0.1-0.1-0.2-0.1c0,0,0-0.1,0-0.2V96.8c0-0.3,0.1-0.6,0.3-0.7
						c0.2-0.1,0.4-0.2,0.6-0.2h1.3c0.3,0,0.5,0,0.7,0.1c0.2,0,0.4,0.1,0.5,0.2c0.1,0.1,0.3,0.2,0.4,0.4c0.1,0.2,0.2,0.3,0.3,0.6
						l4.4,11.1h0.1l4.6-11.1c0.1-0.2,0.2-0.4,0.3-0.6c0.1-0.2,0.2-0.3,0.3-0.4c0.1-0.1,0.3-0.2,0.4-0.2c0.1,0,0.3-0.1,0.5-0.1h1.3
						c0.1,0,0.2,0,0.3,0.1c0.1,0,0.2,0.1,0.3,0.2s0.1,0.2,0.2,0.3c0,0.1,0.1,0.3,0.1,0.4L83.7,110.9L83.7,110.9z"/>
				</g>
			</g>
			<g>
				<path class="st0" d="M61.2,48.5l17.7,14c1.1,0.8,2.6,0.9,3.7,0.1l32.2-24c0.5-0.4,1.2,0.3,0.7,0.8L80.7,78.8
					c-1.2,1.3-3.2,1.5-4.5,0.3L52.4,58.4c-0.8-0.7-0.8-1.8-0.1-2.6l6.5-7.1C59.4,48,60.4,47.9,61.2,48.5z"/>
				<g>
					<path class="st1" d="M77.2,56.4c2.3-5.1,3.5-10.8,3.4-16.8C80.2,17.7,62.6,0.2,40.7,0C18.5-0.2,0.3,17.7,0,39.8
						c-0.3,21.3,16.7,39.5,38,40.7c7.2,0.4,14.1-1.1,20.1-4.1c1-0.6,3.5-1.9,5.3-3.3c0.5-0.4,0.6-1.2,0.1-1.6l-9.2-7.9
						c-0.4-0.3-0.9-0.4-1.3-0.1c-4.7,2.6-10.2,3.8-16.1,3C25.1,65,15.6,55.6,14.1,43.7C11.9,26.6,26.3,12,43.4,14
						c11.6,1.3,21,10.3,22.9,21.8C67,40,66.7,44,65.7,47.7c-0.2,0.5,0,1.1,0.5,1.5l9.6,7.6C76.2,57.2,76.9,57,77.2,56.4z"/>
				</g>
			</g>
		</g>
	</g>
	<text transform="matrix(1 0 0 1 86.7927 129.8893)" class="st2 st3 st4">Invoice Module</text>
</g>
</svg>
