<?xml version="1.0" encoding="utf-8"?>
<!-- Generator: Adobe Illustrator 24.3.0, SVG Export Plug-In . SVG Version: 6.00 Build 0)  -->
<svg version="1.1" id="Layer_1" xmlns="http://www.w3.org/2000/svg" xmlns:xlink="http://www.w3.org/1999/xlink" x="0px" y="0px"
	 viewBox="0 0 115.7 136.2" style="enable-background:new 0 0 115.7 136.2;" xml:space="preserve">
<style type="text/css">
	.st0{fill:#404041;}
	.st1{fill:#00A551;}
	.st2{enable-background:new    ;}
	.st3{fill:#FFFFFF;}
</style>
<g>
	<path class="st0" d="M1.6,116.9h80.5c0.9,0,1.6,0.7,1.6,1.6v16.1c0,0.9-0.7,1.6-1.6,1.6H1.6c-0.9,0-1.6-0.7-1.6-1.6v-16.1
		C0,117.6,0.7,116.9,1.6,116.9z"/>
	<g>
		<g>
			<g>
				<g>
					<path class="st0" d="M15.7,112.6c0,0.2,0,0.3,0,0.5c0,0.1,0,0.2-0.1,0.3c0,0.1-0.1,0.1-0.1,0.1h-0.1c-0.2,0-0.4-0.1-0.8-0.2
						c-0.4-0.1-0.8-0.3-1.2-0.6c-0.5-0.3-1-0.6-1.5-0.9c-0.5-0.4-1-0.8-1.5-1.3c-0.4,0.2-0.9,0.4-1.5,0.6s-1.3,0.3-2.1,0.3
						c-1.2,0-2.2-0.2-3-0.5s-1.5-0.8-2.1-1.5s-1-1.5-1.2-2.5c-0.3-1-0.4-2.1-0.4-3.4c0-1.2,0.1-2.3,0.4-3.3s0.7-1.8,1.3-2.5
						s1.3-1.2,2.2-1.6s1.9-0.6,3.1-0.6c1.1,0,2.1,0.2,2.9,0.5c0.8,0.3,1.5,0.8,2.1,1.5s1,1.5,1.3,2.4c0.3,1,0.4,2.1,0.4,3.3
						c0,0.6,0,1.3-0.1,1.8c-0.1,0.6-0.2,1.1-0.4,1.7c-0.2,0.5-0.4,1-0.6,1.4c-0.2,0.4-0.5,0.8-0.9,1.2c0.6,0.5,1.1,0.8,1.5,1.1
						c0.4,0.3,0.8,0.5,1.1,0.6s0.5,0.2,0.7,0.3c0.2,0.1,0.3,0.1,0.4,0.2c0.1,0.1,0.1,0.2,0.2,0.3S15.7,112.4,15.7,112.6z
						 M11.6,103.5c0-0.9-0.1-1.7-0.2-2.4c-0.2-0.7-0.4-1.4-0.8-1.9c-0.4-0.6-0.8-1-1.4-1.3c-0.6-0.3-1.3-0.5-2.2-0.5
						s-1.6,0.2-2.2,0.5s-1.1,0.8-1.5,1.3c-0.4,0.6-0.6,1.2-0.8,1.9c-0.2,0.7-0.2,1.5-0.2,2.3c0,0.9,0.1,1.7,0.2,2.5s0.4,1.4,0.8,2
						s0.8,1,1.4,1.3s1.3,0.5,2.3,0.5c0.9,0,1.6-0.2,2.3-0.5c0.6-0.3,1.1-0.8,1.5-1.3c0.4-0.6,0.6-1.2,0.8-2
						C11.5,105.1,11.6,104.3,11.6,103.5z"/>
					<path class="st0" d="M31.3,103.4c0,1.2-0.1,2.4-0.4,3.4s-0.7,1.9-1.3,2.6c-0.6,0.7-1.3,1.2-2.2,1.6c-0.9,0.4-1.9,0.6-3.1,0.6
						s-2.2-0.2-3-0.5s-1.5-0.8-2.1-1.5s-1-1.5-1.2-2.5c-0.3-1-0.4-2.1-0.4-3.4c0-1.2,0.1-2.3,0.4-3.3s0.7-1.8,1.3-2.5
						c0.6-0.7,1.3-1.2,2.2-1.6c0.9-0.4,1.9-0.6,3.1-0.6c1.1,0,2.1,0.2,3,0.5c0.8,0.3,1.5,0.8,2.1,1.5s1,1.5,1.2,2.4
						C31.2,101,31.3,102.1,31.3,103.4z M29.2,103.5c0-0.9-0.1-1.7-0.2-2.4c-0.2-0.7-0.4-1.4-0.8-1.9c-0.4-0.6-0.8-1-1.4-1.3
						s-1.3-0.5-2.2-0.5s-1.6,0.2-2.2,0.5s-1.1,0.8-1.5,1.3c-0.4,0.6-0.6,1.2-0.8,1.9c-0.2,0.7-0.2,1.5-0.2,2.3
						c0,0.9,0.1,1.7,0.2,2.5s0.4,1.4,0.8,2s0.8,1,1.4,1.3s1.3,0.5,2.3,0.5c0.9,0,1.6-0.2,2.3-0.5c0.6-0.3,1.1-0.8,1.5-1.3
						c0.4-0.6,0.6-1.2,0.8-2C29.1,105.1,29.2,104.3,29.2,103.5z"/>
					<path class="st0" d="M46,110.9c0,0.1,0,0.1,0,0.2c0,0-0.1,0.1-0.2,0.1c-0.1,0-0.2,0.1-0.3,0.1s-0.3,0-0.6,0c-0.2,0-0.4,0-0.5,0
						s-0.2,0-0.3-0.1c-0.1,0-0.1-0.1-0.2-0.1c0-0.1-0.1-0.1-0.1-0.2l-1.4-3.6c-0.2-0.4-0.3-0.8-0.5-1.1c-0.2-0.3-0.4-0.6-0.6-0.9
						c-0.2-0.3-0.5-0.4-0.9-0.6c-0.3-0.1-0.7-0.2-1.2-0.2h-1.4v6.5c0,0.1,0,0.1-0.1,0.2c0,0-0.1,0.1-0.2,0.1s-0.2,0.1-0.3,0.1
						s-0.3,0-0.5,0s-0.4,0-0.5,0s-0.2,0-0.3-0.1c-0.1,0-0.1-0.1-0.2-0.1c0,0,0-0.1,0-0.2V96.7c0-0.3,0.1-0.5,0.2-0.6
						c0.2-0.1,0.3-0.2,0.5-0.2h3.3c0.4,0,0.7,0,1,0s0.5,0,0.7,0.1c0.6,0.1,1.1,0.3,1.6,0.5s0.8,0.5,1.2,0.8c0.3,0.3,0.5,0.7,0.7,1.2
						c0.2,0.4,0.2,0.9,0.2,1.5c0,0.5-0.1,1-0.2,1.4c-0.1,0.4-0.3,0.8-0.6,1.1c-0.3,0.3-0.6,0.6-0.9,0.8c-0.4,0.2-0.8,0.4-1.2,0.6
						c0.3,0.1,0.5,0.3,0.7,0.4c0.2,0.2,0.4,0.4,0.6,0.6c0.2,0.2,0.3,0.5,0.5,0.8s0.3,0.7,0.5,1l1.4,3.4c0.1,0.3,0.2,0.5,0.2,0.6
						C46,110.8,46,110.9,46,110.9z M42.9,100.1c0-0.6-0.1-1.1-0.4-1.5c-0.3-0.4-0.7-0.7-1.4-0.9c-0.2-0.1-0.4-0.1-0.7-0.1
						s-0.6,0-1,0h-1.7v5.2h2c0.5,0,1-0.1,1.4-0.2s0.7-0.3,1-0.5s0.4-0.5,0.6-0.8C42.9,100.8,42.9,100.5,42.9,100.1z"/>
					<path class="st0" d="M61.7,105.6c0,0.9-0.1,1.8-0.4,2.5s-0.7,1.4-1.2,1.9s-1.1,0.9-1.9,1.2c-0.7,0.3-1.6,0.4-2.5,0.4
						s-1.6-0.1-2.3-0.4s-1.3-0.6-1.8-1.1s-0.9-1.1-1.2-1.8c-0.3-0.7-0.4-1.6-0.4-2.5v-9.5c0-0.1,0-0.1,0-0.2c0,0,0.1-0.1,0.2-0.1
						c0.1,0,0.2-0.1,0.3-0.1s0.3,0,0.5,0s0.4,0,0.5,0s0.2,0,0.3,0.1c0.1,0,0.1,0.1,0.2,0.1c0,0,0,0.1,0,0.2v9.3
						c0,0.7,0.1,1.3,0.3,1.9c0.2,0.5,0.4,1,0.8,1.3s0.7,0.6,1.2,0.8c0.5,0.2,1,0.3,1.6,0.3s1.1-0.1,1.6-0.3c0.5-0.2,0.9-0.4,1.2-0.8
						c0.3-0.3,0.6-0.8,0.7-1.3c0.2-0.5,0.3-1.1,0.3-1.8v-9.4c0-0.1,0-0.1,0-0.2c0,0,0.1-0.1,0.2-0.1c0.1,0,0.2-0.1,0.3-0.1
						s0.3,0,0.5,0s0.4,0,0.5,0s0.2,0,0.3,0.1c0.1,0,0.1,0.1,0.2,0.1c0,0,0.1,0.1,0.1,0.2L61.7,105.6L61.7,105.6z"/>
					<path class="st0" d="M83.7,110.9c0,0.1,0,0.1,0,0.2c0,0-0.1,0.1-0.2,0.1s-0.2,0.1-0.3,0.1c-0.1,0-0.3,0-0.5,0s-0.3,0-0.5,0
						c-0.1,0-0.2,0-0.3-0.1c-0.1,0-0.1-0.1-0.2-0.1c0,0,0-0.1,0-0.2V97.5l0,0L76.2,111c0,0.1-0.1,0.1-0.1,0.1s-0.1,0.1-0.2,0.1
						s-0.2,0-0.3,0.1c-0.1,0-0.3,0-0.4,0c-0.2,0-0.3,0-0.4,0s-0.2,0-0.3-0.1c-0.1,0-0.1-0.1-0.2-0.1l-0.1-0.1L69,97.5l0,0v13.4
						c0,0.1,0,0.1,0,0.2c0,0-0.1,0.1-0.2,0.1s-0.2,0.1-0.3,0.1s-0.3,0-0.5,0s-0.4,0-0.5,0s-0.2,0-0.3-0.1c-0.1,0-0.1-0.1-0.2-0.1
						c0,0,0-0.1,0-0.2V96.8c0-0.3,0.1-0.6,0.3-0.7c0.2-0.1,0.4-0.2,0.6-0.2h1.3c0.3,0,0.5,0,0.7,0.1c0.2,0,0.4,0.1,0.5,0.2
						s0.3,0.2,0.4,0.4c0.1,0.2,0.2,0.3,0.3,0.6l4.4,11.1h0.1l4.6-11.1c0.1-0.2,0.2-0.4,0.3-0.6c0.1-0.2,0.2-0.3,0.3-0.4
						c0.1-0.1,0.3-0.2,0.4-0.2s0.3-0.1,0.5-0.1H83c0.1,0,0.2,0,0.3,0.1c0.1,0,0.2,0.1,0.3,0.2s0.1,0.2,0.2,0.3
						c0,0.1,0.1,0.3,0.1,0.4L83.7,110.9L83.7,110.9z"/>
				</g>
			</g>
			<g>
				<path class="st0" d="M61.2,48.5l17.7,14c1.1,0.8,2.6,0.9,3.7,0.1l32.2-24c0.5-0.4,1.2,0.3,0.7,0.8L80.7,78.8
					c-1.2,1.3-3.2,1.5-4.5,0.3L52.4,58.4c-0.8-0.7-0.8-1.8-0.1-2.6l6.5-7.1C59.4,48,60.4,47.9,61.2,48.5z"/>
				<g>
					<path class="st1" d="M77.2,56.4c2.3-5.1,3.5-10.8,3.4-16.8C80.2,17.7,62.6,0.2,40.7,0C18.5-0.2,0.3,17.7,0,39.8
						c-0.3,21.3,16.7,39.5,38,40.7c7.2,0.4,14.1-1.1,20.1-4.1c1-0.6,3.5-1.9,5.3-3.3c0.5-0.4,0.6-1.2,0.1-1.6l-9.2-7.9
						c-0.4-0.3-0.9-0.4-1.3-0.1c-4.7,2.6-10.2,3.8-16.1,3C25.1,65,15.6,55.6,14.1,43.7C11.9,26.6,26.3,12,43.4,14
						c11.6,1.3,21,10.3,22.9,21.8C67,40,66.7,44,65.7,47.7c-0.2,0.5,0,1.1,0.5,1.5l9.6,7.6C76.2,57.2,76.9,57,77.2,56.4z"/>
				</g>
			</g>
		</g>
	</g>
	<g class="st2">
		<path class="st3" d="M8.3,122.5v7.8h-1v-7.8H8.3z"/>
		<path class="st3" d="M12.4,130.4v-7.8h1.1l2.5,3.9c0.6,0.9,1,1.7,1.4,2.5l0,0c-0.1-1-0.1-2-0.1-3.2v-3.3h0.9v7.8h-1l-2.5-4
			c-0.5-0.9-1.1-1.8-1.4-2.6l0,0c0.1,1,0.1,1.9,0.1,3.2v3.3H12.4z"/>
		<path class="st3" d="M24,130.4l-2.6-7.8h1.1l1.2,3.8c0.3,1.1,0.6,2,0.8,2.9h0c0.2-0.9,0.5-1.9,0.9-2.9l1.3-3.9h1.1l-2.8,7.8H24z"
			/>
		<path class="st3" d="M37.8,126.4c0,2.7-1.6,4.1-3.6,4.1c-2.1,0-3.5-1.6-3.5-4c0-2.5,1.5-4.1,3.6-4.1
			C36.4,122.4,37.8,124,37.8,126.4z M31.7,126.5c0,1.7,0.9,3.2,2.5,3.2s2.5-1.5,2.5-3.2c0-1.6-0.8-3.2-2.5-3.2
			S31.7,124.8,31.7,126.5z"/>
		<path class="st3" d="M42.4,122.5v7.8h-1v-7.8H42.4z"/>
		<path class="st3" d="M51.9,130.1c-0.4,0.2-1.1,0.4-2.1,0.4c-2.2,0-3.8-1.4-3.8-4c0-2.5,1.7-4.1,4.1-4.1c1,0,1.6,0.2,1.9,0.3
			l-0.3,0.8c-0.4-0.2-0.9-0.3-1.6-0.3c-1.8,0-3,1.2-3,3.2c0,1.9,1.1,3.1,3,3.1c0.6,0,1.3-0.1,1.7-0.3L51.9,130.1z"/>
		<path class="st3" d="M56.5,122.5v7.8h-1v-7.8H56.5z"/>
		<path class="st3" d="M60.6,130.4v-7.8h1.1l2.5,3.9c0.6,0.9,1,1.7,1.4,2.5l0,0c-0.1-1-0.1-2-0.1-3.2v-3.3h0.9v7.8h-1l-2.5-4
			c-0.5-0.9-1.1-1.8-1.4-2.6l0,0c0.1,1,0.1,1.9,0.1,3.2v3.3H60.6z"/>
		<path class="st3" d="M76.5,130c-0.5,0.2-1.4,0.4-2.4,0.4c-1.2,0-2.2-0.3-2.9-1c-0.7-0.6-1.1-1.7-1.1-2.9c0-2.3,1.6-4,4.2-4
			c0.9,0,1.6,0.2,2,0.4l-0.3,0.8c-0.4-0.2-0.9-0.3-1.7-0.3c-1.9,0-3.1,1.2-3.1,3.1c0,2,1.2,3.2,3,3.2c0.7,0,1.1-0.1,1.3-0.2v-2.3
			h-1.6v-0.8h2.6V130z"/>
	</g>
</g>
</svg>
